<svg version="1.1" viewBox="0.0 0.0 960.0 720.0" fill="none" stroke="none" stroke-linecap="square" stroke-miterlimit="10" xmlns:xlink="http://www.w3.org/1999/xlink" xmlns="http://www.w3.org/2000/svg"><clipPath id="p.0"><path d="m0 0l960.0 0l0 720.0l-960.0 0l0 -720.0z" clip-rule="nonzero"/></clipPath><g clip-path="url(#p.0)"><path fill="#000000" fill-opacity="0.0" d="m0 0l960.0 0l0 720.0l-960.0 0z" fill-rule="evenodd"/><path fill="#8e7cc3" d="m121.41732 305.99738l0 0c0 -164.70262 141.28766 -298.22046 315.5748 -298.22046l0 0c83.69562 0 163.96332 31.419565 223.14508 87.346756c59.181763 55.927185 92.42975 131.78073 92.42975 210.87372l0 0c0 164.7026 -141.28766 298.22046 -315.57483 298.22046l0 0c-174.28714 0 -315.5748 -133.51785 -315.5748 -298.22046z" fill-rule="evenodd"/><path stroke="#000000" stroke-width="1.0" stroke-linejoin="round" stroke-linecap="butt" d="m121.41732 305.99738l0 0c0 -164.70262 141.28766 -298.22046 315.5748 -298.22046l0 0c83.69562 0 163.96332 31.419565 223.14508 87.346756c59.181763 55.927185 92.42975 131.78073 92.42975 210.87372l0 0c0 164.7026 -141.28766 298.22046 -315.57483 298.22046l0 0c-174.28714 0 -315.5748 -133.51785 -315.5748 -298.22046z" fill-rule="evenodd"/><path fill="#000000" fill-opacity="0.0" d="m372.7454 36.706036l609.8898 0l0 71.14961l-609.8898 0z" fill-rule="evenodd"/><path fill="#000000" d="m383.9329 76.42604l0 -22.906254l4.625 0l0 22.906254l-4.625 0zm24.09375 0l-4.390625 0l0 -8.46875q0 -2.6875 -0.28125 -3.46875q-0.28125 -0.7968788 -0.921875 -1.2343788q-0.625 -0.4375 -1.515625 -0.4375q-1.140625 0 -2.046875 0.625q-0.90625 0.6250038 -1.25 1.6562538q-0.328125 1.03125 -0.328125 3.8125l0 7.515625l-4.390625 0l0 -16.593754l4.078125 0l0 2.4375q2.171875 -2.8125 5.46875 -2.8125q1.453125 0 2.65625 0.53125q1.203125 0.515625 1.8125 1.328125q0.625 0.8125 0.859375 1.84375q0.25 1.0312538 0.25 2.9531288l0 10.3125zm12.0625 -16.593754l0 3.5l-3.0 0l0 6.687504q0 2.03125 0.078125 2.375q0.09375 0.328125 0.390625 0.546875q0.3125 0.21875 0.75 0.21875q0.609375 0 1.765625 -0.421875l0.375 3.40625q-1.53125 0.65625 -3.46875 0.65625q-1.1875 0 -2.140625 -0.390625q-0.953125 -0.40625 -1.40625 -1.03125q-0.4375 -0.640625 -0.609375 -1.71875q-0.140625 -0.765625 -0.140625 -3.09375l0 -7.234379l-2.015625 0l0 -3.5l2.015625 0l0 -3.296875l4.40625 -2.5625l0 5.859375l3.0 0zm12.65625 11.312504l4.375 0.734375q-0.84375 2.40625 -2.671875 3.671875q-1.8125 1.25 -4.546875 1.25q-4.328125 0 -6.40625 -2.828125q-1.640625 -2.265625 -1.640625 -5.71875q0 -4.125 2.15625 -6.453129q2.15625 -2.34375 5.453125 -2.34375q3.703125 0 5.84375 2.453125q2.140625 2.4375038 2.046875 7.484379l-11.0 0q0.046875 1.953125 1.0625 3.046875q1.015625 1.078125 2.53125 1.078125q1.03125 0 1.734375 -0.5625q0.703125 -0.5625 1.0625 -1.8125zm0.25 -4.4375q-0.046875 -1.90625 -0.984375 -2.8906288q-0.9375 -1.0 -2.28125 -1.0q-1.4375 0 -2.375 1.046875q-0.9375 1.0468788 -0.921875 2.8437538l6.5625 0zm7.53125 10.8125l5.015625 0.609375q0.125 0.875 0.578125 1.203125q0.625 0.46875 1.96875 0.46875q1.71875 0 2.578125 -0.515625q0.578125 -0.34375 0.875 -1.109375q0.203125 -0.546875 0.203125 -2.015625l0 -2.421875q-1.96875 2.6875 -4.96875 2.6875q-3.34375 0 -5.296875 -2.828125q-1.53125 -2.234375 -1.53125 -5.5625q0 -4.171879 2.0 -6.375004q2.015625 -2.203125 5.0 -2.203125q3.078125 0 5.078125 2.703125l0 -2.328125l4.109375 0l0 14.890629q0 2.9375 -0.484375 4.390625q-0.484375 1.453125 -1.359375 2.28125q-0.875 0.828125 -2.34375 1.296875q-1.453125 0.46875 -3.6875 0.46875q-4.21875 0 -5.984375 -1.453125q-1.765625 -1.4375 -1.765625 -3.65625q0 -0.21875 0.015625 -0.53125zm3.921875 -9.734375q0 2.640625 1.015625 3.875q1.03125 1.21875 2.53125 1.21875q1.609375 0 2.71875 -1.25q1.109375 -1.265625 1.109375 -3.734375q0 -2.578125 -1.0625 -3.828125q-1.0625 -1.2500038 -2.6875 -1.2500038q-1.578125 0 -2.609375 1.2343788q-1.015625 1.21875 -1.015625 3.734375zm25.640625 3.359375l4.375 0.734375q-0.84375 2.40625 -2.671875 3.671875q-1.8125 1.25 -4.546875 1.25q-4.328125 0 -6.40625 -2.828125q-1.640625 -2.265625 -1.640625 -5.71875q0 -4.125 2.15625 -6.453129q2.15625 -2.34375 5.453125 -2.34375q3.703125 0 5.84375 2.453125q2.140625 2.4375038 2.046875 7.484379l-11.0 0q0.046875 1.953125 1.0625 3.046875q1.015625 1.078125 2.53125 1.078125q1.03125 0 1.734375 -0.5625q0.703125 -0.5625 1.0625 -1.8125zm0.25 -4.4375q-0.046875 -1.90625 -0.984375 -2.8906288q-0.9375 -1.0 -2.28125 -1.0q-1.4375 0 -2.375 1.046875q-0.9375 1.0468788 -0.921875 2.8437538l6.5625 0zm12.140625 9.71875l-4.390625 0l0 -16.593754l4.078125 0l0 2.359375q1.046875 -1.671875 1.875 -2.203125q0.84375 -0.53125 1.90625 -0.53125q1.5 0 2.890625 0.828125l-1.359375 3.8281288q-1.109375 -0.7187538 -2.0625 -0.7187538q-0.921875 0 -1.5625 0.515625q-0.640625 0.5000038 -1.015625 1.8281288q-0.359375 1.328125 -0.359375 5.5625l0 5.125z" fill-rule="nonzero"/><path fill="#000000" fill-opacity="0.0" d="m677.6903 107.855644l-463.84253 409.00787" fill-rule="evenodd"/><path stroke="#000000" stroke-width="1.0" stroke-linejoin="round" stroke-linecap="butt" d="m677.6903 107.855644l-463.84253 409.00787" fill-rule="evenodd"/><path fill="#000000" fill-opacity="0.0" d="m210.04724 151.55118l646.9921 0l0 75.49606l-646.9921 0z" fill-rule="evenodd"/><path fill="#000000" d="m219.01599 178.47118l5.125 -13.359375l1.90625 0l5.46875 13.359375l-2.015625 0l-1.546875 -4.046875l-5.59375 0l-1.46875 4.046875l-1.875 0zm3.859375 -5.484375l4.53125 0l-1.40625 -3.703125q-0.625 -1.6875 -0.9375 -2.765625q-0.265625 1.28125 -0.71875 2.546875l-1.46875 3.921875zm16.162323 1.9375l1.609375 0.21875q-0.265625 1.65625 -1.359375 2.609375q-1.078125 0.9375 -2.671875 0.9375q-1.984375 0 -3.1875 -1.296875q-1.203125 -1.296875 -1.203125 -3.71875q0 -1.578125 0.515625 -2.75q0.515625 -1.171875 1.578125 -1.75q1.0625 -0.59375 2.3125 -0.59375q1.578125 0 2.578125 0.796875q1.0 0.796875 1.28125 2.265625l-1.59375 0.234375q-0.234375 -0.96875 -0.8125 -1.453125q-0.578125 -0.5 -1.390625 -0.5q-1.234375 0 -2.015625 0.890625q-0.78125 0.890625 -0.78125 2.8125q0 1.953125 0.75 2.84375q0.75 0.875 1.953125 0.875q0.96875 0 1.609375 -0.59375q0.65625 -0.59375 0.828125 -1.828125zm6.59375 2.078125l0.234375 1.453125q-0.6875 0.140625 -1.234375 0.140625q-0.890625 0 -1.390625 -0.28125q-0.484375 -0.28125 -0.6875 -0.734375q-0.203125 -0.46875 -0.203125 -1.9375l0 -5.578125l-1.203125 0l0 -1.265625l1.203125 0l0 -2.390625l1.625 -0.984375l0 3.375l1.65625 0l0 1.265625l-1.65625 0l0 5.671875q0 0.6875 0.078125 0.890625q0.09375 0.203125 0.28125 0.328125q0.203125 0.109375 0.578125 0.109375q0.265625 0 0.71875 -0.0625zm7.933304 1.46875l0 -1.421875q-1.125 1.640625 -3.0625 1.640625q-0.859375 0 -1.609375 -0.328125q-0.734375 -0.328125 -1.09375 -0.828125q-0.359375 -0.5 -0.5 -1.21875q-0.109375 -0.46875 -0.109375 -1.53125l0 -5.984375l1.640625 0l0 5.359375q0 1.28125 0.109375 1.734375q0.15625 0.640625 0.65625 1.015625q0.5 0.375 1.234375 0.375q0.734375 0 1.375 -0.375q0.65625 -0.390625 0.921875 -1.03125q0.265625 -0.65625 0.265625 -1.890625l0 -5.1875l1.640625 0l0 9.671875l-1.46875 0zm10.360092 -1.1875q-0.921875 0.765625 -1.765625 1.09375q-0.828125 0.3125 -1.796875 0.3125q-1.59375 0 -2.453125 -0.78125q-0.859375 -0.78125 -0.859375 -1.984375q0 -0.71875 0.328125 -1.296875q0.328125 -0.59375 0.84375 -0.9375q0.53125 -0.359375 1.1875 -0.546875q0.46875 -0.125 1.453125 -0.25q1.984375 -0.234375 2.921875 -0.5625q0.015625 -0.34375 0.015625 -0.421875q0 -1.0 -0.46875 -1.421875q-0.625 -0.546875 -1.875 -0.546875q-1.15625 0 -1.703125 0.40625q-0.546875 0.40625 -0.8125 1.421875l-1.609375 -0.21875q0.21875 -1.015625 0.71875 -1.640625q0.5 -0.640625 1.453125 -0.984375q0.953125 -0.34375 2.1875 -0.34375q1.25 0 2.015625 0.296875q0.78125 0.28125 1.140625 0.734375q0.375 0.4375 0.515625 1.109375q0.078125 0.421875 0.078125 1.515625l0 2.1875q0 2.28125 0.109375 2.890625q0.109375 0.59375 0.40625 1.15625l-1.703125 0q-0.265625 -0.515625 -0.328125 -1.1875zm-0.140625 -3.671875q-0.890625 0.375 -2.671875 0.625q-1.015625 0.140625 -1.4375 0.328125q-0.421875 0.1875 -0.65625 0.53125q-0.21875 0.34375 -0.21875 0.78125q0 0.65625 0.5 1.09375q0.5 0.4375 1.453125 0.4375q0.9375 0 1.671875 -0.40625q0.75 -0.421875 1.09375 -1.140625q0.265625 -0.5625 0.265625 -1.640625l0 -0.609375zm4.1569824 4.859375l0 -13.359375l1.640625 0l0 13.359375l-1.640625 0zm9.875 0l0 -13.359375l1.765625 0l0 13.359375l-1.765625 0zm4.6832886 0l0 -9.671875l1.46875 0l0 1.375q1.0625 -1.59375 3.078125 -1.59375q0.875 0 1.609375 0.3125q0.734375 0.3125 1.09375 0.828125q0.375 0.5 0.515625 1.203125q0.09375 0.453125 0.09375 1.59375l0 5.953125l-1.640625 0l0 -5.890625q0 -1.0 -0.203125 -1.484375q-0.1875 -0.5 -0.671875 -0.796875q-0.484375 -0.296875 -1.140625 -0.296875q-1.046875 0 -1.8125 0.671875q-0.75 0.65625 -0.75 2.515625l0 5.28125l-1.640625 0zm13.953857 -1.46875l0.234375 1.453125q-0.6875 0.140625 -1.234375 0.140625q-0.890625 0 -1.390625 -0.28125q-0.484375 -0.28125 -0.6875 -0.734375q-0.203125 -0.46875 -0.203125 -1.9375l0 -5.578125l-1.203125 0l0 -1.265625l1.203125 0l0 -2.390625l1.625 -0.984375l0 3.375l1.65625 0l0 1.265625l-1.65625 0l0 5.671875q0 0.6875 0.078125 0.890625q0.09375 0.203125 0.28125 0.328125q0.203125 0.109375 0.578125 0.109375q0.265625 0 0.71875 -0.0625zm8.230164 -1.640625l1.6875 0.203125q-0.40625 1.484375 -1.484375 2.3125q-1.078125 0.8125 -2.765625 0.8125q-2.125 0 -3.375 -1.296875q-1.234375 -1.3125 -1.234375 -3.671875q0 -2.453125 1.25 -3.796875q1.265625 -1.34375 3.265625 -1.34375q1.9375 0 3.15625 1.328125q1.234375 1.3125 1.234375 3.703125q0 0.15625 0 0.4375l-7.21875 0q0.09375 1.59375 0.90625 2.453125q0.8125 0.84375 2.015625 0.84375q0.90625 0 1.546875 -0.46875q0.640625 -0.484375 1.015625 -1.515625zm-5.390625 -2.65625l5.40625 0q-0.109375 -1.21875 -0.625 -1.828125q-0.78125 -0.953125 -2.03125 -0.953125q-1.125 0 -1.90625 0.765625q-0.765625 0.75 -0.84375 2.015625zm8.828857 6.5625l1.59375 0.234375q0.109375 0.75 0.5625 1.078125q0.609375 0.453125 1.671875 0.453125q1.140625 0 1.75 -0.453125q0.625 -0.453125 0.84375 -1.265625q0.125 -0.5 0.109375 -2.109375q-1.0625 1.265625 -2.671875 1.265625q-2.0 0 -3.09375 -1.4375q-1.09375 -1.4375 -1.09375 -3.453125q0 -1.390625 0.5 -2.5625q0.515625 -1.171875 1.453125 -1.796875q0.953125 -0.640625 2.25 -0.640625q1.703125 0 2.8125 1.375l0 -1.15625l1.515625 0l0 8.359375q0 2.265625 -0.46875 3.203125q-0.453125 0.9375 -1.453125 1.484375q-0.984375 0.546875 -2.453125 0.546875q-1.71875 0 -2.796875 -0.78125q-1.0625 -0.765625 -1.03125 -2.34375zm1.359375 -5.8125q0 1.90625 0.75 2.78125q0.765625 0.875 1.90625 0.875q1.125 0 1.890625 -0.859375q0.765625 -0.875 0.765625 -2.734375q0 -1.78125 -0.796875 -2.671875q-0.78125 -0.90625 -1.890625 -0.90625q-1.09375 0 -1.859375 0.890625q-0.765625 0.875 -0.765625 2.625zm15.953827 1.90625l1.6875 0.203125q-0.40625 1.484375 -1.484375 2.3125q-1.078125 0.8125 -2.765625 0.8125q-2.125 0 -3.375 -1.296875q-1.234375 -1.3125 -1.234375 -3.671875q0 -2.453125 1.25 -3.796875q1.265625 -1.34375 3.265625 -1.34375q1.9375 0 3.15625 1.328125q1.234375 1.3125 1.234375 3.703125q0 0.15625 0 0.4375l-7.21875 0q0.09375 1.59375 0.90625 2.453125q0.8125 0.84375 2.015625 0.84375q0.90625 0 1.546875 -0.46875q0.640625 -0.484375 1.015625 -1.515625zm-5.390625 -2.65625l5.40625 0q-0.109375 -1.21875 -0.625 -1.828125q-0.78125 -0.953125 -2.03125 -0.953125q-1.125 0 -1.90625 0.765625q-0.765625 0.75 -0.84375 2.015625zm9.125732 5.765625l0 -9.671875l1.46875 0l0 1.46875q0.5625 -1.03125 1.03125 -1.359375q0.484375 -0.328125 1.0625 -0.328125q0.828125 0 1.6875 0.53125l-0.5625 1.515625q-0.609375 -0.359375 -1.203125 -0.359375q-0.546875 0 -0.96875 0.328125q-0.421875 0.328125 -0.609375 0.890625q-0.28125 0.875 -0.28125 1.921875l0 5.0625l-1.625 0zm5.572052 -2.890625l1.625 -0.25q0.125 0.96875 0.75 1.5q0.625 0.515625 1.75 0.515625q1.125 0 1.671875 -0.453125q0.546875 -0.46875 0.546875 -1.09375q0 -0.546875 -0.484375 -0.875q-0.328125 -0.21875 -1.671875 -0.546875q-1.8125 -0.46875 -2.515625 -0.796875q-0.6875 -0.328125 -1.046875 -0.90625q-0.359375 -0.59375 -0.359375 -1.3125q0 -0.640625 0.296875 -1.1875q0.296875 -0.5625 0.8125 -0.921875q0.375 -0.28125 1.03125 -0.46875q0.671875 -0.203125 1.421875 -0.203125q1.140625 0 2.0 0.328125q0.859375 0.328125 1.265625 0.890625q0.421875 0.5625 0.578125 1.5l-1.609375 0.21875q-0.109375 -0.75 -0.640625 -1.171875q-0.515625 -0.421875 -1.46875 -0.421875q-1.140625 0 -1.625 0.375q-0.46875 0.375 -0.46875 0.875q0 0.3125 0.1875 0.578125q0.203125 0.265625 0.640625 0.4375q0.234375 0.09375 1.4375 0.421875q1.75 0.453125 2.4375 0.75q0.6875 0.296875 1.078125 0.859375q0.390625 0.5625 0.390625 1.40625q0 0.828125 -0.484375 1.546875q-0.46875 0.71875 -1.375 1.125q-0.90625 0.390625 -2.046875 0.390625q-1.875 0 -2.875 -0.78125q-0.984375 -0.78125 -1.25 -2.328125z" fill-rule="nonzero"/><path fill="#000000" fill-opacity="0.0" d="m530.1706 250.39633l202.17322 0l0 44.944885l-202.17322 0z" fill-rule="evenodd"/><path fill="#000000" d="m555.57684 275.92883l0 10.984375q1.015625 0 1.5 0.453125q0.484375 0.453125 0.484375 1.15625q0 0.703125 -0.5 1.15625q-0.484375 0.4375 -1.640625 0.4375l-3.046875 0l0 -0.734375q-1.375 0.625 -2.625 0.9375q-1.25 0.3125 -2.375 0.3125q-1.578125 0 -2.734375 -0.65625q-1.15625 -0.671875 -1.828125 -1.84375q-0.484375 -0.84375 -0.484375 -2.109375l0 -6.890625l-0.546875 0q-1.15625 0 -1.65625 -0.4375q-0.484375 -0.453125 -0.484375 -1.171875q0 -0.703125 0.484375 -1.140625q0.5 -0.453125 1.65625 -0.453125l3.75 0l0 9.53125q0 1.015625 0.484375 1.5q0.5 0.46875 1.515625 0.46875q0.96875 0 2.078125 -0.375q1.125 -0.390625 2.765625 -1.390625l0 -6.53125l-1.15625 0q-1.15625 0 -1.65625 -0.4375q-0.484375 -0.453125 -0.484375 -1.171875q0 -0.703125 0.484375 -1.140625q0.5 -0.453125 1.65625 -0.453125l4.359375 0zm9.15625 0l0 1.078125q0.875 -0.75 1.921875 -1.125q1.0625 -0.375 2.296875 -0.375q2.84375 0 4.5 1.765625q1.3125 1.40625 1.3125 3.6875l0 5.953125q1.015625 0 1.5 0.453125q0.484375 0.4375 0.484375 1.15625q0 0.703125 -0.5 1.15625q-0.484375 0.4375 -1.640625 0.4375l-2.890625 0q-1.15625 0 -1.65625 -0.4375q-0.484375 -0.453125 -0.484375 -1.171875q0 -0.703125 0.484375 -1.140625q0.484375 -0.453125 1.5 -0.453125l0 -6.046875q0 -1.046875 -0.5625 -1.53125q-0.734375 -0.625 -2.203125 -0.625q-1.109375 0 -1.953125 0.4375q-0.828125 0.421875 -2.109375 1.8125l0 5.953125q1.234375 0 1.59375 0.234375q0.765625 0.46875 0.765625 1.375q0 0.703125 -0.5 1.15625q-0.484375 0.4375 -1.640625 0.4375l-3.640625 0q-1.15625 0 -1.65625 -0.4375q-0.484375 -0.453125 -0.484375 -1.171875q0 -0.875 0.75 -1.359375q0.375 -0.234375 1.609375 -0.234375l0 -7.78125q-1.015625 0 -1.5 -0.453125q-0.484375 -0.453125 -0.484375 -1.15625q0 -0.703125 0.484375 -1.140625q0.5 -0.453125 1.65625 -0.453125l3.046875 0zm29.796875 -6.078125l0 17.0625l0.546875 0q1.140625 0 1.640625 0.453125q0.5 0.4375 0.5 1.15625q0 0.703125 -0.5 1.15625q-0.484375 0.4375 -1.640625 0.4375l-3.75 0l0 -0.78125q-1.09375 0.640625 -2.296875 0.96875q-1.1875 0.328125 -2.46875 0.328125q-3.609375 0 -5.8125 -2.078125q-2.203125 -2.09375 -2.203125 -5.203125q0 -3.25 2.3125 -5.546875q2.3125 -2.296875 5.640625 -2.296875q1.25 0 2.453125 0.390625q1.203125 0.375 2.375 1.140625l0 -3.984375l-0.546875 0q-1.15625 0 -1.65625 -0.4375q-0.484375 -0.453125 -0.484375 -1.15625q0 -0.71875 0.484375 -1.15625q0.5 -0.453125 1.65625 -0.453125l3.75 0zm-3.203125 13.59375q0 -1.984375 -1.390625 -3.359375q-1.390625 -1.375 -3.40625 -1.375q-2.0 0 -3.390625 1.375q-1.390625 1.375 -1.390625 3.3125q0 1.765625 1.25 2.90625q1.25 1.125 3.53125 1.125q2.265625 0 3.53125 -1.125q1.265625 -1.140625 1.265625 -2.859375zm23.09375 1.203125l-13.140625 0q0.5 1.25 1.765625 2.015625q1.28125 0.765625 3.453125 0.765625q1.78125 0 4.734375 -0.765625q1.21875 -0.3125 1.6875 -0.3125q0.640625 0 1.078125 0.453125q0.4375 0.453125 0.4375 1.140625q0 0.625 -0.46875 1.0625q-0.625 0.578125 -3.046875 1.109375q-2.421875 0.515625 -4.65625 0.515625q-3.84375 0 -6.15625 -2.171875q-2.296875 -2.171875 -2.296875 -5.34375q0 -3.375 2.484375 -5.484375q2.5 -2.125 5.75 -2.125q1.953125 0 3.578125 0.6875q1.640625 0.6875 2.4375 1.484375q1.125 1.15625 1.859375 2.859375q0.5 1.1875 0.5 2.75l0 1.359375zm-3.546875 -3.203125q-0.734375 -1.375 -1.921875 -2.046875q-1.1875 -0.6875 -2.828125 -0.6875q-1.625 0 -2.8125 0.6875q-1.1875 0.671875 -1.9375 2.046875l9.5 0zm14.6875 -2.3125l0 7.78125l4.5625 0q1.15625 0 1.640625 0.453125q0.5 0.4375 0.5 1.15625q0 0.703125 -0.5 1.15625q-0.484375 0.4375 -1.640625 0.4375l-9.671875 0q-1.15625 0 -1.65625 -0.4375q-0.484375 -0.453125 -0.484375 -1.171875q0 -0.703125 0.484375 -1.140625q0.5 -0.453125 1.65625 -0.453125l1.90625 0l0 -7.78125l-1.53125 0q-1.15625 0 -1.65625 -0.4375q-0.484375 -0.453125 -0.484375 -1.171875q0 -0.703125 0.484375 -1.140625q0.5 -0.453125 1.65625 -0.453125l1.53125 0l0 -1.21875q0 -2.09375 1.5625 -3.46875q1.578125 -1.390625 4.5625 -1.390625q1.328125 0 3.0625 0.25q1.75 0.234375 2.234375 0.671875q0.5 0.4375 0.5 1.125q0 0.734375 -0.4375 1.203125q-0.4375 0.453125 -1.078125 0.453125q-0.296875 0 -0.890625 -0.109375q-1.984375 -0.390625 -3.515625 -0.390625q-1.59375 0 -2.203125 0.484375q-0.59375 0.46875 -0.59375 1.171875l0 1.21875l4.9375 0q1.15625 0 1.640625 0.453125q0.5 0.4375 0.5 1.15625q0 0.703125 -0.5 1.15625q-0.484375 0.4375 -1.640625 0.4375l-4.9375 0zm20.375 -9.28125l0 3.390625l-3.8125 0l0 -3.390625l3.8125 0zm0.4375 6.078125l0 10.984375l3.84375 0q1.15625 0 1.640625 0.453125q0.5 0.4375 0.5 1.15625q0 0.703125 -0.5 1.15625q-0.484375 0.4375 -1.640625 0.4375l-10.890625 0q-1.15625 0 -1.65625 -0.4375q-0.484375 -0.453125 -0.484375 -1.171875q0 -0.703125 0.484375 -1.140625q0.5 -0.453125 1.65625 -0.453125l3.84375 0l0 -7.78125l-2.578125 0q-1.140625 0 -1.640625 -0.4375q-0.5 -0.453125 -0.5 -1.171875q0 -0.703125 0.484375 -1.140625q0.5 -0.453125 1.65625 -0.453125l5.78125 0zm14.375 0l0 1.078125q0.875 -0.75 1.921875 -1.125q1.0625 -0.375 2.296875 -0.375q2.84375 0 4.5 1.765625q1.3125 1.40625 1.3125 3.6875l0 5.953125q1.015625 0 1.5 0.453125q0.484375 0.4375 0.484375 1.15625q0 0.703125 -0.5 1.15625q-0.484375 0.4375 -1.640625 0.4375l-2.890625 0q-1.15625 0 -1.65625 -0.4375q-0.484375 -0.453125 -0.484375 -1.171875q0 -0.703125 0.484375 -1.140625q0.484375 -0.453125 1.5 -0.453125l0 -6.046875q0 -1.046875 -0.5625 -1.53125q-0.734375 -0.625 -2.203125 -0.625q-1.109375 0 -1.953125 0.4375q-0.828125 0.421875 -2.109375 1.8125l0 5.953125q1.234375 0 1.59375 0.234375q0.765625 0.46875 0.765625 1.375q0 0.703125 -0.5 1.15625q-0.484375 0.4375 -1.640625 0.4375l-3.640625 0q-1.15625 0 -1.65625 -0.4375q-0.484375 -0.453125 -0.484375 -1.171875q0 -0.875 0.75 -1.359375q0.375 -0.234375 1.609375 -0.234375l0 -7.78125q-1.015625 0 -1.5 -0.453125q-0.484375 -0.453125 -0.484375 -1.15625q0 -0.703125 0.484375 -1.140625q0.5 -0.453125 1.65625 -0.453125l3.046875 0zm30.484375 8.71875l-13.140625 0q0.5 1.25 1.765625 2.015625q1.28125 0.765625 3.453125 0.765625q1.78125 0 4.734375 -0.765625q1.21875 -0.3125 1.6875 -0.3125q0.640625 0 1.078125 0.453125q0.4375 0.453125 0.4375 1.140625q0 0.625 -0.46875 1.0625q-0.625 0.578125 -3.046875 1.109375q-2.421875 0.515625 -4.65625 0.515625q-3.84375 0 -6.15625 -2.171875q-2.296875 -2.171875 -2.296875 -5.34375q0 -3.375 2.484375 -5.484375q2.5 -2.125 5.75 -2.125q1.953125 0 3.578125 0.6875q1.640625 0.6875 2.4375 1.484375q1.125 1.15625 1.859375 2.859375q0.5 1.1875 0.5 2.75l0 1.359375zm-3.546875 -3.203125q-0.734375 -1.375 -1.921875 -2.046875q-1.1875 -0.6875 -2.828125 -0.6875q-1.625 0 -2.8125 0.6875q-1.1875 0.671875 -1.9375 2.046875l9.5 0zm22.0625 -11.59375l0 17.0625l0.546875 0q1.140625 0 1.640625 0.453125q0.5 0.4375 0.5 1.15625q0 0.703125 -0.5 1.15625q-0.484375 0.4375 -1.640625 0.4375l-3.75 0l0 -0.78125q-1.09375 0.640625 -2.296875 0.96875q-1.1875 0.328125 -2.46875 0.328125q-3.609375 0 -5.8125 -2.078125q-2.203125 -2.09375 -2.203125 -5.203125q0 -3.25 2.3125 -5.546875q2.3125 -2.296875 5.640625 -2.296875q1.25 0 2.453125 0.390625q1.203125 0.375 2.375 1.140625l0 -3.984375l-0.546875 0q-1.15625 0 -1.65625 -0.4375q-0.484375 -0.453125 -0.484375 -1.15625q0 -0.71875 0.484375 -1.15625q0.5 -0.453125 1.65625 -0.453125l3.75 0zm-3.203125 13.59375q0 -1.984375 -1.390625 -3.359375q-1.390625 -1.375 -3.40625 -1.375q-2.0 0 -3.390625 1.375q-1.390625 1.375 -1.390625 3.3125q0 1.765625 1.25 2.90625q1.25 1.125 3.53125 1.125q2.265625 0 3.53125 -1.125q1.265625 -1.140625 1.265625 -2.859375z" fill-rule="nonzero"/><path fill="#000000" fill-opacity="0.0" d="m402.3937 349.51706l405.22836 0l0 44.944885l-405.22836 0z" fill-rule="evenodd"/><path fill="#000000" d="m420.2062 378.2527l0 6.421875q0 1.03125 0.421875 1.359375q0.65625 0.515625 2.34375 0.515625q2.453125 0 4.53125 -1.046875q0.796875 -0.40625 1.25 -0.40625q0.625 0 1.078125 0.46875q0.46875 0.46875 0.46875 1.140625q0 0.625 -0.5 1.078125q-0.765625 0.734375 -3.03125 1.359375q-2.25 0.609375 -3.796875 0.609375q-2.984375 0 -4.484375 -1.28125q-1.484375 -1.296875 -1.484375 -3.171875l0 -7.046875l-1.15625 0q-1.15625 0 -1.65625 -0.4375q-0.484375 -0.453125 -0.484375 -1.171875q0 -0.703125 0.484375 -1.140625q0.5 -0.453125 1.65625 -0.453125l1.15625 0l0 -2.890625q0 -1.15625 0.4375 -1.640625q0.453125 -0.5 1.171875 -0.5q0.703125 0 1.140625 0.5q0.453125 0.484375 0.453125 1.640625l0 2.890625l5.921875 0q1.15625 0 1.640625 0.453125q0.5 0.4375 0.5 1.15625q0 0.703125 -0.5 1.15625q-0.484375 0.4375 -1.640625 0.4375l-5.921875 0zm16.6875 -9.28125l0 6.828125q1.0 -0.59375 2.015625 -0.875q1.03125 -0.296875 2.078125 -0.296875q1.65625 0 2.953125 0.5625q1.296875 0.5625 2.140625 1.78125q0.859375 1.203125 0.859375 3.046875l0 6.015625q1.21875 0 1.59375 0.234375q0.75 0.484375 0.75 1.375q0 0.703125 -0.484375 1.15625q-0.484375 0.4375 -1.640625 0.4375l-3.65625 0q-1.140625 0 -1.640625 -0.4375q-0.484375 -0.453125 -0.484375 -1.171875q0 -0.875 0.75 -1.359375q0.390625 -0.25 1.59375 -0.234375l0 -5.796875q0 -1.234375 -0.5625 -1.734375q-0.734375 -0.671875 -2.171875 -0.671875q-1.0625 0 -1.890625 0.421875q-0.8125 0.40625 -2.203125 1.78125l0 6.0q1.234375 0 1.59375 0.234375q0.765625 0.484375 0.765625 1.375q0 0.703125 -0.5 1.15625q-0.484375 0.4375 -1.640625 0.4375l-3.640625 0q-1.15625 0 -1.65625 -0.4375q-0.484375 -0.453125 -0.484375 -1.171875q0 -0.875 0.765625 -1.359375q0.375 -0.25 1.59375 -0.234375l0 -13.859375l-0.546875 0q-1.15625 0 -1.65625 -0.4375q-0.484375 -0.453125 -0.484375 -1.171875q0 -0.703125 0.484375 -1.140625q0.5 -0.453125 1.65625 -0.453125l3.75 0zm21.84375 6.078125l0 2.0q2.015625 -1.453125 3.171875 -1.9375q1.171875 -0.484375 2.1875 -0.484375q1.5625 0 3.03125 1.15625q1.0 0.78125 1.0 1.59375q0 0.6875 -0.484375 1.171875q-0.46875 0.46875 -1.140625 0.46875q-0.59375 0 -1.25 -0.59375q-0.65625 -0.59375 -1.171875 -0.59375q-0.671875 0 -2.015625 0.84375q-1.328125 0.84375 -3.328125 2.53125l0 4.828125l4.5625 0q1.15625 0 1.640625 0.453125q0.5 0.4375 0.5 1.15625q0 0.703125 -0.5 1.15625q-0.484375 0.4375 -1.640625 0.4375l-9.671875 0q-1.15625 0 -1.65625 -0.4375q-0.484375 -0.453125 -0.484375 -1.171875q0 -0.703125 0.484375 -1.140625q0.5 -0.453125 1.65625 -0.453125l1.90625 0l0 -7.78125l-1.15625 0q-1.15625 0 -1.65625 -0.4375q-0.484375 -0.453125 -0.484375 -1.171875q0 -0.703125 0.484375 -1.140625q0.5 -0.453125 1.65625 -0.453125l4.359375 0zm28.1875 7.359375q0 1.84375 -1.03125 3.578125q-1.015625 1.71875 -3.046875 2.75q-2.015625 1.015625 -4.21875 1.015625q-2.1875 0 -4.1875 -1.0q-2.0 -1.015625 -3.046875 -2.75q-1.046875 -1.734375 -1.046875 -3.625q0 -1.921875 1.0625 -3.765625q1.0625 -1.859375 3.046875 -2.921875q2.0 -1.0625 4.171875 -1.0625q2.1875 0 4.203125 1.09375q2.03125 1.078125 3.0625 2.921875q1.03125 1.828125 1.03125 3.765625zm-3.203125 0.015625q0 -1.546875 -1.109375 -2.84375q-1.515625 -1.75 -3.984375 -1.75q-2.171875 0 -3.625 1.390625q-1.453125 1.390625 -1.453125 3.21875q0 1.5 1.46875 2.8125q1.46875 1.296875 3.609375 1.296875q2.15625 0 3.625 -1.296875q1.46875 -1.3125 1.46875 -2.828125zm14.109375 0.90625l-2.21875 5.90625l-3.015625 0l-2.6875 -10.984375q-0.875 -0.046875 -1.328125 -0.484375q-0.4375 -0.453125 -0.4375 -1.125q0 -0.703125 0.484375 -1.140625q0.5 -0.453125 1.65625 -0.453125l2.984375 0q1.15625 0 1.640625 0.453125q0.5 0.4375 0.5 1.15625q0 0.71875 -0.5625 1.21875q-0.421875 0.375 -1.65625 0.375l1.21875 5.078125l1.984375 -5.203125l2.84375 0l2.0 5.203125l1.25 -5.078125q-1.1875 0 -1.5625 -0.234375q-0.75 -0.484375 -0.75 -1.375q0 -0.703125 0.484375 -1.140625q0.5 -0.453125 1.65625 -0.453125l3.015625 0q1.15625 0 1.640625 0.453125q0.5 0.4375 0.5 1.15625q0 0.640625 -0.4375 1.09375q-0.421875 0.4375 -1.265625 0.5l-2.625 10.984375l-2.96875 0l-2.34375 -5.90625zm36.18747 -1.984375l0 4.6875l3.28125 0q1.15625 0 1.640625 0.453125q0.5 0.4375 0.5 1.15625q0 0.703125 -0.5 1.15625q-0.484375 0.4375 -1.640625 0.4375l-6.984375 0q-1.15625 0 -1.65625 -0.4375q-0.484375 -0.453125 -0.484375 -1.171875q0 -0.703125 0.5 -1.140625q0.5 -0.453125 1.640625 -0.453125l0.5 0l0 -12.53125l-0.5 0q-1.15625 0 -1.65625 -0.4375q-0.484375 -0.453125 -0.484375 -1.171875q0 -0.71875 0.484375 -1.15625q0.5 -0.453125 1.65625 -0.453125l15.078125 0.015625l0 4.890625q0 1.140625 -0.453125 1.640625q-0.4375 0.484375 -1.15625 0.484375q-0.703125 0 -1.15625 -0.484375q-0.4375 -0.484375 -0.4375 -1.640625l0 -1.6875l-8.171875 0l0 4.640625l2.8125 0q0 -1.25 0.234375 -1.609375q0.484375 -0.765625 1.375 -0.765625q0.703125 0 1.140625 0.5q0.453125 0.484375 0.453125 1.640625l0 3.6875q0 1.15625 -0.453125 1.65625q-0.4375 0.484375 -1.15625 0.484375q-0.875 0 -1.359375 -0.765625q-0.234375 -0.359375 -0.234375 -1.625l-2.8125 0zm22.546875 -12.375l0 3.390625l-3.8125 0l0 -3.390625l3.8125 0zm0.4375 6.078125l0 10.984375l3.84375 0q1.15625 0 1.640625 0.453125q0.5 0.4375 0.5 1.15625q0 0.703125 -0.5 1.15625q-0.484375 0.4375 -1.640625 0.4375l-10.890625 0q-1.15625 0 -1.65625 -0.4375q-0.484375 -0.453125 -0.484375 -1.171875q0 -0.703125 0.484375 -1.140625q0.5 -0.453125 1.65625 -0.453125l3.84375 0l0 -7.78125l-2.578125 0q-1.140625 0 -1.640625 -0.4375q-0.5 -0.453125 -0.5 -1.171875q0 -0.703125 0.484375 -1.140625q0.5 -0.453125 1.65625 -0.453125l5.78125 0zm19.21875 -6.078125l0 17.0625l3.84375 0q1.15625 0 1.640625 0.453125q0.5 0.4375 0.5 1.15625q0 0.703125 -0.5 1.15625q-0.484375 0.4375 -1.640625 0.4375l-10.890625 0q-1.15625 0 -1.65625 -0.4375q-0.484375 -0.453125 -0.484375 -1.171875q0 -0.703125 0.484375 -1.140625q0.5 -0.453125 1.65625 -0.453125l3.84375 0l0 -13.859375l-2.578125 0q-1.140625 0 -1.640625 -0.4375q-0.5 -0.453125 -0.5 -1.171875q0 -0.703125 0.484375 -1.140625q0.5 -0.453125 1.65625 -0.453125l5.78125 0zm25.640625 14.796875l-13.140625 0q0.5 1.25 1.765625 2.015625q1.28125 0.765625 3.453125 0.765625q1.78125 0 4.734375 -0.765625q1.21875 -0.3125 1.6875 -0.3125q0.640625 0 1.078125 0.453125q0.4375 0.453125 0.4375 1.140625q0 0.625 -0.46875 1.0625q-0.625 0.578125 -3.046875 1.109375q-2.421875 0.515625 -4.65625 0.515625q-3.84375 0 -6.15625 -2.171875q-2.296875 -2.171875 -2.296875 -5.34375q0 -3.375 2.484375 -5.484375q2.5 -2.125 5.75 -2.125q1.953125 0 3.578125 0.6875q1.640625 0.6875 2.4375 1.484375q1.125 1.15625 1.859375 2.859375q0.5 1.1875 0.5 2.75l0 1.359375zm-3.546875 -3.203125q-0.734375 -1.375 -1.921875 -2.046875q-1.1875 -0.6875 -2.828125 -0.6875q-1.625 0 -2.8125 0.6875q-1.1875 0.671875 -1.9375 2.046875l9.5 0zm10.703125 -4.21875l0 9.6875l1.15625 0q1.15625 0 1.640625 0.453125q0.5 0.4375 0.5 1.15625q0 0.703125 -0.5 1.15625q-0.484375 0.4375 -1.640625 0.4375l-4.203125 0q-1.15625 0 -1.65625 -0.4375q-0.484375 -0.453125 -0.484375 -1.171875q0 -0.6875 0.484375 -1.140625q0.484375 -0.453125 1.5 -0.453125l0 -12.53125l-0.5 0q-1.15625 0 -1.65625 -0.4375q-0.484375 -0.453125 -0.484375 -1.171875q0 -0.71875 0.484375 -1.15625q0.5 -0.453125 1.65625 -0.453125l3.703125 0.015625l8.1875 12.84375l0 -9.640625l-1.15625 0q-1.15625 0 -1.65625 -0.4375q-0.484375 -0.453125 -0.484375 -1.171875q0 -0.71875 0.484375 -1.15625q0.5 -0.453125 1.65625 -0.453125l4.203125 0.015625q1.15625 0 1.640625 0.4375q0.5 0.4375 0.5 1.15625q0 0.703125 -0.484375 1.15625q-0.484375 0.453125 -1.484375 0.453125l0 15.734375l-3.171875 0l-8.234375 -12.890625zm31.53125 6.0625q0 1.84375 -1.03125 3.578125q-1.015625 1.71875 -3.046875 2.75q-2.015625 1.015625 -4.21875 1.015625q-2.1875 0 -4.1875 -1.0q-2.0 -1.015625 -3.046875 -2.75q-1.046875 -1.734375 -1.046875 -3.625q0 -1.921875 1.0625 -3.765625q1.0625 -1.859375 3.046875 -2.921875q2.0 -1.0625 4.171875 -1.0625q2.1875 0 4.203125 1.09375q2.03125 1.078125 3.0625 2.921875q1.03125 1.828125 1.03125 3.765625zm-3.203125 0.015625q0 -1.546875 -1.109375 -2.84375q-1.515625 -1.75 -3.984375 -1.75q-2.171875 0 -3.625 1.390625q-1.453125 1.390625 -1.453125 3.21875q0 1.5 1.46875 2.8125q1.46875 1.296875 3.609375 1.296875q2.15625 0 3.625 -1.296875q1.46875 -1.3125 1.46875 -2.828125zm13.296875 -4.171875l0 6.421875q0 1.03125 0.421875 1.359375q0.65625 0.515625 2.34375 0.515625q2.453125 0 4.53125 -1.046875q0.796875 -0.40625 1.25 -0.40625q0.625 0 1.078125 0.46875q0.46875 0.46875 0.46875 1.140625q0 0.625 -0.5 1.078125q-0.765625 0.734375 -3.03125 1.359375q-2.25 0.609375 -3.796875 0.609375q-2.984375 0 -4.484375 -1.28125q-1.484375 -1.296875 -1.484375 -3.171875l0 -7.046875l-1.15625 0q-1.15625 0 -1.65625 -0.4375q-0.484375 -0.453125 -0.484375 -1.171875q0 -0.703125 0.484375 -1.140625q0.5 -0.453125 1.65625 -0.453125l1.15625 0l0 -2.890625q0 -1.15625 0.4375 -1.640625q0.453125 -0.5 1.171875 -0.5q0.703125 0 1.140625 0.5q0.453125 0.484375 0.453125 1.640625l0 2.890625l5.921875 0q1.15625 0 1.640625 0.453125q0.5 0.4375 0.5 1.15625q0 0.703125 -0.5 1.15625q-0.484375 0.4375 -1.640625 0.4375l-5.921875 0zm17.796875 3.09375l0 4.6875l3.28125 0q1.15625 0 1.640625 0.453125q0.5 0.4375 0.5 1.15625q0 0.703125 -0.5 1.15625q-0.484375 0.4375 -1.640625 0.4375l-6.984375 0q-1.15625 0 -1.65625 -0.4375q-0.484375 -0.453125 -0.484375 -1.171875q0 -0.703125 0.5 -1.140625q0.5 -0.453125 1.640625 -0.453125l0.5 0l0 -12.53125l-0.5 0q-1.15625 0 -1.65625 -0.4375q-0.484375 -0.453125 -0.484375 -1.171875q0 -0.71875 0.484375 -1.15625q0.5 -0.453125 1.65625 -0.453125l15.078125 0.015625l0 4.890625q0 1.140625 -0.453125 1.640625q-0.4375 0.484375 -1.15625 0.484375q-0.703125 0 -1.15625 -0.484375q-0.4375 -0.484375 -0.4375 -1.640625l0 -1.6875l-8.171875 0l0 4.640625l2.8125 0q0 -1.25 0.234375 -1.609375q0.484375 -0.765625 1.375 -0.765625q0.703125 0 1.140625 0.5q0.453125 0.484375 0.453125 1.640625l0 3.6875q0 1.15625 -0.453125 1.65625q-0.4375 0.484375 -1.15625 0.484375q-0.875 0 -1.359375 -0.765625q-0.234375 -0.359375 -0.234375 -1.625l-2.8125 0zm29.71875 1.0625q0 1.84375 -1.03125 3.578125q-1.015625 1.71875 -3.046875 2.75q-2.015625 1.015625 -4.21875 1.015625q-2.1875 0 -4.1875 -1.0q-2.0 -1.015625 -3.046875 -2.75q-1.046875 -1.734375 -1.046875 -3.625q0 -1.921875 1.0625 -3.765625q1.0625 -1.859375 3.046875 -2.921875q2.0 -1.0625 4.171875 -1.0625q2.1875 0 4.203125 1.09375q2.03125 1.078125 3.0625 2.921875q1.03125 1.828125 1.03125 3.765625zm-3.203125 0.015625q0 -1.546875 -1.109375 -2.84375q-1.515625 -1.75 -3.984375 -1.75q-2.171875 0 -3.625 1.390625q-1.453125 1.390625 -1.453125 3.21875q0 1.5 1.46875 2.8125q1.46875 1.296875 3.609375 1.296875q2.15625 0 3.625 -1.296875q1.46875 -1.3125 1.46875 -2.828125zm20.890625 -7.375l0 10.984375q1.015625 0 1.5 0.453125q0.484375 0.453125 0.484375 1.15625q0 0.703125 -0.5 1.15625q-0.484375 0.4375 -1.640625 0.4375l-3.046875 0l0 -0.734375q-1.375 0.625 -2.625 0.9375q-1.25 0.3125 -2.375 0.3125q-1.578125 0 -2.734375 -0.65625q-1.15625 -0.671875 -1.828125 -1.84375q-0.484375 -0.84375 -0.484375 -2.109375l0 -6.890625l-0.546875 0q-1.15625 0 -1.65625 -0.4375q-0.484375 -0.453125 -0.484375 -1.171875q0 -0.703125 0.484375 -1.140625q0.5 -0.453125 1.65625 -0.453125l3.75 0l0 9.53125q0 1.015625 0.484375 1.5q0.5 0.46875 1.515625 0.46875q0.96875 0 2.078125 -0.375q1.125 -0.390625 2.765625 -1.390625l0 -6.53125l-1.15625 0q-1.15625 0 -1.65625 -0.4375q-0.484375 -0.453125 -0.484375 -1.171875q0 -0.703125 0.484375 -1.140625q0.5 -0.453125 1.65625 -0.453125l4.359375 0zm9.15625 0l0 1.078125q0.875 -0.75 1.921875 -1.125q1.0625 -0.375 2.296875 -0.375q2.84375 0 4.5 1.765625q1.3125 1.40625 1.3125 3.6875l0 5.953125q1.015625 0 1.5 0.453125q0.484375 0.4375 0.484375 1.15625q0 0.703125 -0.5 1.15625q-0.484375 0.4375 -1.640625 0.4375l-2.890625 0q-1.15625 0 -1.65625 -0.4375q-0.484375 -0.453125 -0.484375 -1.171875q0 -0.703125 0.484375 -1.140625q0.484375 -0.453125 1.5 -0.453125l0 -6.046875q0 -1.046875 -0.5625 -1.53125q-0.734375 -0.625 -2.203125 -0.625q-1.109375 0 -1.953125 0.4375q-0.828125 0.421875 -2.109375 1.8125l0 5.953125q1.234375 0 1.59375 0.234375q0.765625 0.46875 0.765625 1.375q0 0.703125 -0.5 1.15625q-0.484375 0.4375 -1.640625 0.4375l-3.640625 0q-1.15625 0 -1.65625 -0.4375q-0.484375 -0.453125 -0.484375 -1.171875q0 -0.875 0.75 -1.359375q0.375 -0.234375 1.609375 -0.234375l0 -7.78125q-1.015625 0 -1.5 -0.453125q-0.484375 -0.453125 -0.484375 -1.15625q0 -0.703125 0.484375 -1.140625q0.5 -0.453125 1.65625 -0.453125l3.046875 0zm29.796875 -6.078125l0 17.0625l0.546875 0q1.140625 0 1.640625 0.453125q0.5 0.4375 0.5 1.15625q0 0.703125 -0.5 1.15625q-0.484375 0.4375 -1.640625 0.4375l-3.75 0l0 -0.78125q-1.09375 0.640625 -2.296875 0.96875q-1.1875 0.328125 -2.46875 0.328125q-3.609375 0 -5.8125 -2.078125q-2.203125 -2.09375 -2.203125 -5.203125q0 -3.25 2.3125 -5.546875q2.3125 -2.296875 5.640625 -2.296875q1.25 0 2.453125 0.390625q1.203125 0.375 2.375 1.140625l0 -3.984375l-0.546875 0q-1.15625 0 -1.65625 -0.4375q-0.484375 -0.453125 -0.484375 -1.15625q0 -0.71875 0.484375 -1.15625q0.5 -0.453125 1.65625 -0.453125l3.75 0zm-3.203125 13.59375q0 -1.984375 -1.390625 -3.359375q-1.390625 -1.375 -3.40625 -1.375q-2.0 0 -3.390625 1.375q-1.390625 1.375 -1.390625 3.3125q0 1.765625 1.25 2.90625q1.25 1.125 3.53125 1.125q2.265625 0 3.53125 -1.125q1.265625 -1.140625 1.265625 -2.859375z" fill-rule="nonzero"/><path fill="#000000" fill-opacity="0.0" d="m340.59842 464.3622l405.22836 0l0 44.944885l-405.22836 0z" fill-rule="evenodd"/><path fill="#000000" d="m360.8328 483.34784l0 17.53125l3.234375 0q1.15625 0 1.640625 0.453125q0.5 0.4375 0.5 1.15625q0 0.703125 -0.5 1.15625q-0.484375 0.4375 -1.640625 0.4375l-9.671875 0q-1.15625 0 -1.65625 -0.4375q-0.484375 -0.453125 -0.484375 -1.171875q0 -0.703125 0.484375 -1.140625q0.5 -0.453125 1.65625 -0.453125l3.234375 0l0 -13.359375l-2.859375 0.75q-0.6875 0.1875 -1.03125 0.1875q-0.609375 0 -1.0625 -0.484375q-0.4375 -0.484375 -0.4375 -1.1875q0 -0.640625 0.328125 -1.0q0.328125 -0.375 1.375 -0.65625l6.890625 -1.78125zm43.375 0.890625l-10.265625 22.125q-0.390625 0.828125 -0.703125 1.078125q-0.40625 0.328125 -0.984375 0.328125q-0.65625 0 -1.140625 -0.46875q-0.46875 -0.46875 -0.46875 -1.0625q0 -0.421875 0.375 -1.234375l10.296875 -22.109375q0.390625 -0.828125 0.6875 -1.078125q0.421875 -0.328125 0.984375 -0.328125q0.65625 0 1.125 0.46875q0.46875 0.453125 0.46875 1.046875q0 0.421875 -0.375 1.234375zm38.796875 7.953125l0 3.515625q0 3.125 -1.8125 5.984375q-1.796875 2.859375 -5.15625 2.859375q-1.9375 0 -3.28125 -0.84375q-1.328125 -0.859375 -2.53125 -3.140625q-1.1875 -2.296875 -1.1875 -4.859375l0 -3.515625q0 -3.109375 1.796875 -5.96875q1.796875 -2.875 5.15625 -2.875q1.921875 0 3.25 0.84375q1.34375 0.84375 2.546875 3.140625q1.21875 2.28125 1.21875 4.859375zm-3.21875 0q0 -2.609375 -1.453125 -4.5625q-0.828125 -1.078125 -2.328125 -1.078125q-1.453125 0 -2.375 1.1875q-1.390625 1.796875 -1.390625 4.453125l0 3.515625q0 2.625 1.46875 4.5625q0.8125 1.078125 2.328125 1.078125q1.4375 0 2.359375 -1.1875q1.390625 -1.796875 1.390625 -4.453125l0 -3.515625z" fill-rule="nonzero"/><path fill="#000000" d="m521.6922 551.6916l-17.59378 0q-1.15625 0 -1.640625 -0.4375q-0.5 -0.4375 -0.5 -1.15625q0 -0.71875 0.5 -1.171875q0.484375 -0.4375 1.640625 -0.4375l17.59378 0q1.140625 0 1.625 0.4375q0.5 0.453125 0.5 1.171875q0 0.703125 -0.484375 1.140625q-0.484375 0.453125 -1.640625 0.453125zm11.953125 -26.75l0 19.0625q0 1.640625 -0.078125 1.953125q-0.125 0.46875 -0.5625 0.796875q-0.421875 0.328125 -0.953125 0.328125q-0.546875 0 -0.984375 -0.328125q-0.421875 -0.328125 -0.546875 -0.828125q-0.078125 -0.28125 -0.078125 -1.921875l0 -19.0625q0 -1.640625 0.078125 -1.953125q0.125 -0.46875 0.546875 -0.796875q0.4375 -0.328125 0.984375 -0.328125q0.53125 0 0.953125 0.328125q0.4375 0.328125 0.5625 0.8125q0.078125 0.3125 0.078125 1.9375zm26.453125 26.75l-17.59375 0q-1.15625 0 -1.640625 -0.4375q-0.5 -0.4375 -0.5 -1.15625q0 -0.71875 0.5 -1.171875q0.484375 -0.4375 1.640625 -0.4375l17.59375 0q1.140625 0 1.625 0.4375q0.5 0.453125 0.5 1.171875q0 0.703125 -0.484375 1.140625q-0.484375 0.453125 -1.640625 0.453125z" fill-rule="nonzero"/></g></svg>